<svg width="260" height="256" viewBox="0 0 260 256" fill="none" xmlns="http://www.w3.org/2000/svg">
<path d="M160.64 18.1011L163.22 9.55109L161.01 8.88109L161.89 5.97109L164.1 6.63109L165.38 2.37109L168.96 3.45109L167.68 7.71109L170.81 8.65109L169.93 11.5611L166.8 10.6211L164.32 18.8611C164.04 19.7811 164.47 20.1411 165.57 20.4711C165.94 20.5811 166.48 20.6811 167.03 20.7411L166.14 23.9111C165.52 23.8611 164.74 23.6911 164.06 23.4811C161.15 22.6011 159.77 20.9511 160.64 18.0711V18.1011Z" fill="#EEEEEE"/>
<path d="M185.32 21.6111L181.38 30.4411L177.87 28.8811L181.73 20.2311C182.33 18.8911 182.64 18.0411 182.22 17.0111C181.85 16.0411 181.17 15.6711 180.32 15.2911C179.06 14.7311 176.85 14.5111 175.3 17.9911L171.68 26.1211L168.2 24.5711L177.32 4.11109L180.77 5.65109L177.2 13.6611C178.75 12.3211 180.72 12.2111 182.68 13.0911C184.58 13.9411 185.64 14.9411 186.17 16.5011C186.75 18.1911 186.13 19.8111 185.32 21.6211V21.6111Z" fill="#EEEEEE"/>
<path d="M184.01 32.1311L192.11 18.3411L195.39 20.2711L187.29 34.0611L184.01 32.1311ZM193.38 16.1811L195.45 12.6511L198.73 14.5811L196.66 18.1111L193.38 16.1811Z" fill="#EEEEEE"/>
<path d="M207.5 36.5311L201.71 44.2711L198.64 41.9711L204.26 34.4611C205.14 33.2811 205.71 32.4211 205.5 31.3111C205.36 30.3211 204.78 29.8111 204.04 29.2611C202.91 28.4211 200.79 27.7811 198.47 30.8811L193.22 37.9011L190.17 35.6211L199.76 22.8111L202.78 25.0711L201.32 27.0211C203.13 25.9411 205.03 26.2811 206.88 27.6611C208.55 28.9111 209.29 30.1011 209.49 31.6511C209.72 33.4211 208.67 34.9911 207.52 36.5311H207.5Z" fill="#EEEEEE"/>
<path d="M211.05 53.5311L213.19 44.8511L210.77 44.7711L206.53 48.9511L203.86 46.2411L219.81 30.5111L222.48 33.2211L213.78 41.8111L221.93 41.7711L225.37 45.2611L216.73 44.9811L214.12 56.6411L211.06 53.5411L211.05 53.5311Z" fill="#EEEEEE"/>
<path d="M224.73 57.1711C228.81 54.5311 233.45 55.2311 236.22 59.5011C238.95 63.7211 237.65 68.2511 233.59 70.8711C229.37 73.6011 224.81 72.7311 222.14 68.5911C219.36 64.2911 220.35 59.9911 224.73 57.1611V57.1711ZM227.06 68.9611C228.26 69.1011 229.67 68.5711 231.39 67.4611C233.11 66.3511 234.15 65.2511 234.52 64.1111C234.82 63.1611 234.62 62.1411 233.89 61.0111C233.18 59.9111 232.34 59.2711 231.38 59.1311C230.18 58.9211 228.72 59.4411 226.95 60.5811C225.18 61.7211 224.1 62.8411 223.8 64.0211C223.53 64.9611 223.76 65.9511 224.48 67.0811C225.21 68.2111 226.07 68.8311 227.06 68.9511V68.9611Z" fill="#EEEEEE"/>
<path d="M228.09 78.1111L239.75 72.4611L238.75 70.3911L241.49 69.0611L242.49 71.1311L244.51 70.1511C247.3 68.8011 249.14 69.7911 250.56 72.7311C250.89 73.4211 251.2 74.2711 251.27 74.6311L248.48 75.9111C248.34 75.4111 248.11 74.7711 247.95 74.4611C247.48 73.4811 247.08 73.1011 246.13 73.5611L244.14 74.5211L245.56 77.4611L242.82 78.7911L241.4 75.8511L229.74 81.5011L228.09 78.1011V78.1111Z" fill="#EEEEEE"/>
<path d="M238.11 91.5611L246.63 88.8911L245.94 86.6911L248.84 85.7811L249.53 87.9811L253.77 86.6511L254.89 90.2211L250.65 91.5511L251.63 94.6611L248.73 95.5711L247.75 92.4611L239.54 95.0311C238.62 95.3211 238.56 95.8711 238.91 96.9711C239.03 97.3411 239.25 97.8411 239.5 98.3311L236.37 99.3811C236.07 98.8411 235.77 98.0911 235.56 97.4211C234.65 94.5211 235.25 92.4611 238.12 91.5611H238.11Z" fill="#EEEEEE"/>
<path d="M249.07 113.951L239.56 115.661L238.88 111.881L248.2 110.211C249.65 109.951 250.52 109.731 251.13 108.811C251.72 107.961 251.65 107.191 251.49 106.281C251.25 104.931 250.18 102.971 246.43 103.641L237.68 105.211L237.01 101.461L259.06 97.5111L259.73 101.231L251.1 102.781C253.08 103.301 254.27 104.881 254.65 106.991C255.02 109.041 254.79 110.481 253.79 111.791C252.71 113.221 251.03 113.621 249.08 113.971L249.07 113.951Z" fill="#EEEEEE"/>
<path d="M247.09 133.271L246.83 121.371C243.86 121.501 242.38 122.881 242.44 125.531C242.49 127.871 243.51 129.061 245.47 129.371L245.26 133.061C241.56 132.311 239.68 129.731 239.59 125.631C239.54 123.131 240.29 121.201 241.67 119.791C243.14 118.291 245.24 117.571 247.83 117.511C250.29 117.461 252.42 118.111 253.99 119.521C255.49 120.901 256.3 122.801 256.36 125.231C256.42 127.761 255.5 129.921 253.84 131.301C252.27 132.621 249.85 133.311 247.1 133.271H247.09ZM252.03 122.091C251.31 121.591 250.45 121.391 249.68 121.341L249.86 129.341C250.75 129.261 251.68 128.951 252.34 128.391C253.19 127.671 253.55 126.701 253.52 125.291C253.49 123.791 252.95 122.711 252.04 122.091H252.03Z" fill="#EEEEEE"/>
<path d="M244.19 159.001C239.23 158.031 236.52 154.531 237.32 150.451C237.7 148.501 238.79 146.951 240.56 146.061L232.36 144.461L233.09 140.721L255.07 145.021L254.34 148.761L252.24 148.351C253.69 149.771 254.17 151.631 253.79 153.581C253 157.631 249.3 160.001 244.19 159.001ZM245.01 154.961C248.62 155.671 250.66 155.091 251.24 152.101C251.49 150.841 251.24 149.821 250.54 149.001C249.77 148.101 248.39 147.501 246.57 147.151C243.4 146.531 240.89 146.851 240.29 149.901C240.06 151.091 240.19 152.071 240.67 152.781C241.37 153.861 242.84 154.541 245 154.971L245.01 154.961Z" fill="#EEEEEE"/>
<path d="M243.49 161.451C248.05 163.151 250.27 167.281 248.49 172.051C246.74 176.761 242.33 178.431 237.8 176.751C233.09 175.001 231.06 170.831 232.77 166.211C234.55 161.411 238.6 159.631 243.48 161.451H243.49ZM235.43 170.371C236.03 171.411 237.3 172.231 239.22 172.941C241.14 173.651 242.64 173.841 243.78 173.441C244.72 173.111 245.42 172.341 245.89 171.081C246.35 169.851 246.36 168.801 245.89 167.941C245.34 166.851 244.05 165.991 242.07 165.261C240.09 164.521 238.56 164.331 237.43 164.801C236.52 165.141 235.85 165.921 235.38 167.181C234.91 168.441 234.93 169.501 235.42 170.371H235.43Z" fill="#EEEEEE"/>
<path d="M234.22 177.401L232.87 180.711C231.03 179.731 229.38 180.471 228.36 182.321C227.32 184.201 227.45 185.551 228.63 186.201C229.86 186.881 231.05 185.271 232.74 183.461C234.76 181.321 236.86 179.371 239.69 180.941C242.69 182.601 242.39 185.981 240.84 188.781C239.15 191.831 236.59 193.821 233.09 192.291L234.27 188.961C236.05 189.841 237.48 189.231 238.46 187.471C239.14 186.241 239.3 184.831 238.21 184.221C237.12 183.611 236.07 184.721 234.69 186.301C232.65 188.611 230.4 191.281 227.1 189.461C223.71 187.591 224.3 184.071 226 180.991C227.81 177.711 230.8 175.671 234.23 177.421L234.22 177.401Z" fill="#EEEEEE"/>
<path d="M226.46 191.201L224.67 194.291C222.99 193.071 221.25 193.571 219.99 195.261C218.71 196.981 218.65 198.331 219.73 199.141C220.86 199.981 222.25 198.551 224.17 196.991C226.46 195.151 228.81 193.511 231.4 195.451C234.14 197.501 233.38 200.811 231.47 203.371C229.38 206.161 226.57 207.781 223.31 205.781L224.94 202.641C226.59 203.751 228.08 203.351 229.29 201.741C230.13 200.611 230.48 199.241 229.48 198.491C228.48 197.741 227.29 198.691 225.71 200.061C223.37 202.071 220.78 204.401 217.76 202.141C214.66 199.821 215.72 196.421 217.83 193.601C220.07 190.601 223.31 188.991 226.46 191.191V191.201Z" fill="#EEEEEE"/>
<path d="M212.27 201.051L224.04 211.881L221.46 214.681L209.69 203.851L212.27 201.051ZM225.88 213.571L228.89 216.341L226.31 219.141L223.3 216.371L225.88 213.571Z" fill="#EEEEEE"/>
<path d="M200.87 222.721C197.48 218.801 197.64 214.431 200.85 211.651C202.42 210.291 204.45 209.941 206.15 210.491L204.71 208.821L207.59 206.331L222.24 223.271L219.36 225.761L213.88 219.421C214.09 221.271 213.32 223.081 211.77 224.421C208.58 227.181 204.18 226.551 200.87 222.721ZM203.99 220.021C206.4 222.801 208.43 223.591 210.7 221.621C211.69 220.761 212.1 219.821 212.06 218.841C212 217.541 211.19 216.171 209.99 214.791C207.62 212.051 205.36 211.441 203.35 213.171C202.41 213.991 201.93 214.861 201.89 215.791C201.87 217.041 202.61 218.431 203.99 220.031V220.021Z" fill="#EEEEEE"/>
<path d="M193.54 217.831L202.57 231.041L199.43 233.191L190.4 219.981L193.54 217.831ZM203.97 233.111L206.28 236.491L203.14 238.641L200.83 235.261L203.97 233.111Z" fill="#EEEEEE"/>
<path d="M187.45 221.841L198.84 241.131L195.56 243.071L184.17 223.781L187.45 221.841Z" fill="#EEEEEE"/>
<path d="M181.11 225.451L188.3 239.741L184.9 241.451L177.7 227.161L181.1 225.451H181.11ZM189.43 241.971L191.27 245.631L187.87 247.341L186.03 243.681L189.43 241.971Z" fill="#EEEEEE"/>
<path d="M175.18 232.761L178.54 241.031L180.67 240.161L181.81 242.981L179.68 243.851L181.36 247.971L177.89 249.381L176.21 245.261L173.19 246.491L172.04 243.671L175.06 242.441L171.82 234.461C171.46 233.571 170.9 233.561 169.83 233.991C169.47 234.131 168.99 234.401 168.53 234.691L167.23 231.661C167.74 231.311 168.46 230.951 169.11 230.691C171.93 229.541 174.03 229.971 175.17 232.751L175.18 232.761Z" fill="#EEEEEE"/>
<path d="M164.95 232.351L169.76 247.611L166.13 248.761L161.32 233.501L164.95 232.351ZM170.52 249.991L171.75 253.901L168.12 255.051L166.89 251.141L170.52 249.991Z" fill="#EEEEEE"/>
<path d="M144.97 244.261L156.65 241.961C156.01 239.051 154.4 237.841 151.8 238.351C149.51 238.801 148.51 240.011 148.54 241.991L144.87 242.421C144.98 238.651 147.2 236.351 151.22 235.561C153.67 235.081 155.71 235.491 157.33 236.611C159.07 237.801 160.13 239.741 160.63 242.291C161.11 244.711 160.82 246.921 159.71 248.701C158.61 250.421 156.88 251.541 154.49 252.011C152.01 252.501 149.72 251.971 148.07 250.571C146.5 249.251 145.41 246.981 144.97 244.261ZM156.84 247.211C157.21 246.421 157.26 245.531 157.17 244.761L149.32 246.301C149.56 247.171 150.02 248.021 150.68 248.581C151.54 249.291 152.55 249.481 153.94 249.211C155.42 248.921 156.38 248.211 156.84 247.201V247.211Z" fill="#EEEEEE"/>
<path d="M142.75 242.611L139.22 243.201C139.09 241.121 137.6 240.111 135.49 240.211C133.35 240.311 132.27 241.141 132.33 242.481C132.4 243.891 134.39 244.051 136.82 244.541C139.7 245.141 142.46 245.901 142.62 249.131C142.79 252.551 139.75 254.081 136.56 254.231C133.08 254.401 130.04 253.271 129.5 249.481L132.96 248.731C133.15 250.711 134.41 251.611 136.43 251.511C137.84 251.441 139.12 250.831 139.06 249.591C139 248.341 137.51 248.031 135.44 247.681C132.4 247.151 128.95 246.651 128.77 242.881C128.58 239.011 131.88 237.671 135.4 237.491C139.14 237.311 142.45 238.781 142.76 242.611H142.75Z" fill="#EEEEEE"/>
<path d="M117.48 245.751C117.26 247.631 115.54 248.881 113.7 248.641C111.86 248.401 110.56 246.731 110.81 244.891C111.06 243.021 112.71 241.751 114.59 242.011C116.43 242.261 117.73 243.881 117.48 245.751Z" fill="#EEEEEE"/>
<path d="M99.3695 237.899L96.7895 246.449L98.9995 247.109L98.1195 250.019L95.9095 249.349L94.6295 253.609L91.0495 252.529L92.3295 248.269L89.1995 247.329L90.0795 244.419L93.2095 245.359L95.6895 237.119C95.9695 236.199 95.5395 235.839 94.4395 235.509C94.0695 235.399 93.5295 235.299 92.9795 235.239L93.8695 232.069C94.4895 232.119 95.2695 232.289 95.9495 232.489C98.8595 233.369 100.24 235.019 99.3695 237.899Z" fill="#EEEEEE"/>
<path d="M74.6795 234.389L78.6195 225.559L82.1295 227.119L78.2695 235.769C77.6695 237.109 77.3595 237.959 77.7795 238.989C78.1495 239.959 78.8295 240.329 79.6795 240.709C80.9395 241.269 83.1495 241.489 84.6995 238.009L88.3195 229.879L91.7995 231.429L82.6795 251.889L79.2295 250.349L82.7995 242.339C81.2495 243.679 79.2795 243.789 77.3195 242.909C75.4195 242.059 74.3595 241.059 73.8295 239.499C73.2495 237.809 73.8695 236.189 74.6795 234.379V234.389Z" fill="#EEEEEE"/>
<path d="M66.6195 239.809L64.5395 243.339L61.2595 241.409L63.3395 237.879L66.6195 239.809ZM75.9995 223.859L67.8895 237.649L64.6095 235.719L72.7195 221.929L75.9995 223.859Z" fill="#EEEEEE"/>
<path d="M52.4995 219.469L58.2895 211.729L61.3595 214.029L55.7395 221.539C54.8595 222.719 54.2895 223.579 54.4995 224.689C54.6395 225.679 55.2195 226.189 55.9595 226.739C57.0895 227.579 59.2095 228.219 61.5295 225.119L66.7795 218.099L69.8295 220.379L60.2395 233.189L57.2195 230.929L58.6795 228.979C56.8695 230.059 54.9695 229.719 53.1195 228.339C51.4495 227.089 50.7095 225.899 50.5095 224.349C50.2795 222.579 51.3295 221.009 52.4795 219.469H52.4995Z" fill="#EEEEEE"/>
<path d="M48.9495 202.469L46.8095 211.149L49.2295 211.229L53.4695 207.049L56.1395 209.759L40.1895 225.489L37.5195 222.779L46.2195 214.189L38.0695 214.229L34.6295 210.749L43.2695 211.029L45.8795 199.369L48.9395 202.469H48.9495Z" fill="#EEEEEE"/>
<path d="M35.2695 198.829C31.1895 201.469 26.5495 200.769 23.7795 196.499C21.0495 192.279 22.3495 187.749 26.4095 185.119C30.6295 182.389 35.1895 183.259 37.8595 187.399C40.6395 191.699 39.6495 195.999 35.2695 198.829ZM32.9395 187.039C31.7395 186.899 30.3295 187.429 28.6095 188.539C26.8895 189.649 25.8495 190.749 25.4795 191.889C25.1795 192.839 25.3795 193.859 26.1095 194.989C26.8195 196.089 27.6595 196.729 28.6195 196.869C29.8195 197.079 31.2795 196.559 33.0495 195.409C34.8195 194.259 35.8995 193.149 36.1995 191.969C36.4695 191.029 36.2395 190.039 35.5195 188.909C34.7895 187.779 33.9295 187.159 32.9395 187.039Z" fill="#EEEEEE"/>
<path d="M31.9095 177.889L20.2495 183.539L21.2495 185.609L18.5095 186.939L17.5095 184.869L15.4895 185.849C12.6995 187.199 10.8595 186.209 9.43953 183.269C9.10953 182.579 8.79953 181.729 8.72953 181.369L11.5195 180.089C11.6595 180.589 11.8895 181.219 12.0495 181.539C12.5195 182.519 12.9195 182.899 13.8695 182.439L15.8595 181.479L14.4395 178.539L17.1795 177.209L18.5995 180.149L30.2595 174.499L31.9095 177.899V177.889Z" fill="#EEEEEE"/>
<path d="M21.8895 164.439L13.3695 167.109L14.0595 169.309L11.1595 170.219L10.4695 168.019L6.22953 169.349L5.10953 165.779L9.34953 164.449L8.36953 161.339L11.2695 160.429L12.2495 163.539L20.4595 160.969C21.3795 160.679 21.4395 160.129 21.0895 159.029C20.9695 158.659 20.7495 158.159 20.4995 157.669L23.6295 156.619C23.9295 157.159 24.2295 157.909 24.4395 158.579C25.3495 161.479 24.7495 163.539 21.8795 164.439H21.8895Z" fill="#EEEEEE"/>
<path d="M10.9295 142.049L20.4395 140.339L21.1195 144.119L11.7995 145.789C10.3495 146.049 9.47953 146.269 8.86953 147.189C8.27953 148.039 8.34953 148.809 8.50953 149.719C8.74953 151.069 9.81953 153.029 13.5695 152.359L22.3195 150.789L22.9895 154.539L0.939531 158.489L0.269531 154.769L8.89953 153.219C6.91953 152.699 5.72953 151.119 5.34953 149.009C4.97953 146.959 5.20953 145.519 6.20953 144.209C7.28953 142.779 8.96953 142.379 10.9195 142.029L10.9295 142.049Z" fill="#EEEEEE"/>
<path d="M12.9095 122.729L13.1695 134.629C16.1395 134.499 17.6195 133.119 17.5595 130.469C17.5095 128.129 16.4895 126.939 14.5295 126.629L14.7395 122.939C18.4395 123.689 20.3195 126.269 20.4095 130.369C20.4595 132.869 19.7095 134.799 18.3295 136.209C16.8595 137.709 14.7595 138.429 12.1695 138.489C9.70953 138.539 7.57953 137.889 6.00953 136.479C4.50953 135.099 3.69953 133.199 3.63953 130.769C3.57953 128.239 4.49953 126.079 6.15953 124.699C7.72953 123.379 10.1495 122.689 12.8995 122.729H12.9095ZM7.96953 133.909C8.68953 134.409 9.54953 134.609 10.3195 134.659L10.1395 126.659C9.24953 126.739 8.31953 127.049 7.65953 127.609C6.80953 128.329 6.44953 129.299 6.47953 130.709C6.50953 132.209 7.04953 133.289 7.95953 133.909H7.96953Z" fill="#EEEEEE"/>
<path d="M15.8195 96.9892C20.7795 97.9592 23.4895 101.459 22.6895 105.549C22.3095 107.499 21.2195 109.039 19.4495 109.939L27.6495 111.549L26.9195 115.289L4.93953 110.969L5.66953 107.229L7.76953 107.639C6.31953 106.209 5.83953 104.359 6.21953 102.409C7.00953 98.3592 10.7095 95.9892 15.8295 96.9892H15.8195ZM14.9895 101.029C11.3795 100.319 9.33953 100.899 8.74953 103.879C8.49953 105.139 8.74953 106.169 9.44953 106.979C10.2195 107.879 11.5995 108.479 13.4195 108.839C16.5895 109.459 19.0995 109.139 19.6995 106.089C19.9295 104.899 19.7995 103.919 19.3195 103.209C18.6195 102.129 17.1495 101.449 14.9895 101.019V101.029Z" fill="#EEEEEE"/>
<path d="M16.5095 94.5392C11.9495 92.8392 9.72953 88.7092 11.5095 83.9392C13.2595 79.2292 17.6695 77.5592 22.1995 79.2392C26.9095 80.9892 28.9395 85.1592 27.2295 89.7792C25.4495 94.5792 21.3995 96.3592 16.5195 94.5392H16.5095ZM24.5695 85.6192C23.9695 84.5792 22.6995 83.7592 20.7795 83.0492C18.8595 82.3392 17.3595 82.1492 16.2195 82.5492C15.2795 82.8792 14.5795 83.6492 14.1095 84.9092C13.6495 86.1392 13.6395 87.1892 14.1095 88.0492C14.6595 89.1392 15.9495 89.9992 17.9295 90.7292C19.9095 91.4692 21.4395 91.6592 22.5695 91.1892C23.4795 90.8492 24.1495 90.0692 24.6195 88.8092C25.0895 87.5492 25.0695 86.4892 24.5795 85.6192H24.5695Z" fill="#EEEEEE"/>
<path d="M25.7795 78.5992L27.1295 75.2892C28.9695 76.2692 30.6195 75.5292 31.6395 73.6792C32.6795 71.7992 32.5495 70.4492 31.3695 69.7992C30.1395 69.1192 28.9495 70.7292 27.2595 72.5392C25.2395 74.6792 23.1395 76.6292 20.3095 75.0592C17.3095 73.3992 17.6095 70.0192 19.1595 67.2192C20.8495 64.1692 23.4095 62.1792 26.9095 63.7092L25.7295 67.0392C23.9495 66.1592 22.5195 66.7692 21.5395 68.5292C20.8595 69.7592 20.6995 71.1692 21.7895 71.7792C22.8795 72.3892 23.9295 71.2792 25.3095 69.6992C27.3495 67.3892 29.5995 64.7192 32.8995 66.5392C36.2895 68.4092 35.6995 71.9292 33.9995 75.0092C32.1895 78.2892 29.1995 80.3292 25.7695 78.5792L25.7795 78.5992Z" fill="#EEEEEE"/>
<path d="M33.5395 64.7992L35.3295 61.7092C37.0095 62.9292 38.7495 62.4292 40.0095 60.7392C41.2895 59.0192 41.3495 57.6692 40.2695 56.8592C39.1395 56.0192 37.7495 57.4492 35.8295 59.0092C33.5395 60.8492 31.1895 62.4892 28.5995 60.5492C25.8595 58.4992 26.6195 55.1892 28.5295 52.6292C30.6195 49.8392 33.4295 48.2192 36.6895 50.2192L35.0595 53.3592C33.4095 52.2492 31.9195 52.6492 30.7095 54.2592C29.8695 55.3892 29.5195 56.7592 30.5195 57.5092C31.5195 58.2592 32.7095 57.3092 34.2895 55.9392C36.6295 53.9292 39.2195 51.5992 42.2395 53.8592C45.3395 56.1792 44.2795 59.5792 42.1695 62.3992C39.9295 65.3992 36.6895 67.0092 33.5395 64.8092V64.7992Z" fill="#EEEEEE"/>
<path d="M34.1195 42.4292L31.0995 39.6592L33.6795 36.8592L36.6995 39.6292L34.1195 42.4292ZM47.7395 54.9492L35.9595 44.1192L38.5395 41.3192L50.3195 52.1492L47.7395 54.9492Z" fill="#EEEEEE"/>
<path d="M59.1295 33.2792C62.5195 37.1992 62.3595 41.5692 59.1495 44.3492C57.5795 45.7092 55.5595 46.0592 53.8495 45.5092L55.2895 47.1792L52.4095 49.6692L37.7595 32.7292L40.6395 30.2392L46.1195 36.5792C45.9095 34.7292 46.6795 32.9192 48.2295 31.5792C51.4195 28.8192 55.8195 29.4492 59.1295 33.2792ZM56.0095 35.9792C53.5995 33.1992 51.5695 32.4092 49.2995 34.3792C48.3095 35.2392 47.8995 36.1792 47.9395 37.1592C47.9995 38.4592 48.8095 39.8292 50.0095 41.2092C52.3795 43.9492 54.6395 44.5592 56.6495 42.8292C57.5895 42.0092 58.0695 41.1392 58.1095 40.2092C58.1295 38.9592 57.3895 37.5692 56.0095 35.9692V35.9792Z" fill="#EEEEEE"/>
<path d="M56.0295 22.8992L53.7195 19.5192L56.8595 17.3692L59.1695 20.7492L56.0295 22.8992ZM66.4595 38.1792L57.4295 24.9692L60.5695 22.8192L69.5995 36.0292L66.4595 38.1792Z" fill="#EEEEEE"/>
<path d="M72.5495 34.1592L61.1595 14.8692L64.4395 12.9292L75.8295 32.2192L72.5495 34.1592Z" fill="#EEEEEE"/>
<path d="M70.5695 14.0292L68.7295 10.3692L72.1295 8.65922L73.9695 12.3192L70.5695 14.0292ZM78.8895 30.5492L71.6995 16.2592L75.0995 14.5492L82.2995 28.8392L78.8995 30.5492H78.8895Z" fill="#EEEEEE"/>
<path d="M84.8195 23.2392L81.4595 14.9692L79.3295 15.8392L78.1895 13.0192L80.3195 12.1492L78.6395 8.02922L82.1095 6.61922L83.7895 10.7392L86.8095 9.50922L87.9595 12.3292L84.9395 13.5592L88.1795 21.5392C88.5395 22.4292 89.0995 22.4392 90.1695 22.0092C90.5295 21.8692 91.0095 21.5992 91.4695 21.3092L92.7695 24.3392C92.2595 24.6892 91.5395 25.0492 90.8895 25.3092C88.0695 26.4592 85.9695 26.0292 84.8295 23.2492L84.8195 23.2392Z" fill="#EEEEEE"/>
<path d="M89.4795 6.00922L88.2495 2.09922L91.8795 0.949219L93.1095 4.85922L89.4795 6.00922ZM95.0495 23.6492L90.2395 8.38922L93.8695 7.23922L98.6795 22.4992L95.0495 23.6492Z" fill="#EEEEEE"/>
<path d="M115.03 11.7392L103.35 14.0392C103.99 16.9492 105.6 18.1592 108.2 17.6492C110.49 17.1992 111.49 15.9892 111.46 14.0092L115.13 13.5792C115.02 17.3492 112.8 19.6492 108.78 20.4392C106.33 20.9192 104.29 20.5092 102.67 19.3892C100.93 18.1992 99.8695 16.2592 99.3695 13.7092C98.8895 11.2892 99.1795 9.07922 100.29 7.29922C101.39 5.57922 103.12 4.45922 105.51 3.98922C107.99 3.49922 110.28 4.02922 111.93 5.42922C113.5 6.74922 114.59 9.01922 115.03 11.7392ZM103.16 8.78922C102.79 9.57922 102.74 10.4692 102.83 11.2392L110.68 9.69922C110.44 8.82922 109.98 7.97922 109.32 7.41922C108.46 6.70922 107.45 6.51922 106.06 6.78922C104.58 7.07922 103.62 7.78922 103.16 8.79922V8.78922Z" fill="#EEEEEE"/>
<path d="M117.25 13.3892L120.78 12.7992C120.91 14.8792 122.4 15.8892 124.51 15.7892C126.65 15.6892 127.73 14.8592 127.67 13.5192C127.6 12.1092 125.61 11.9492 123.18 11.4592C120.3 10.8592 117.54 10.0992 117.38 6.86922C117.21 3.44922 120.25 1.91922 123.44 1.76922C126.92 1.59922 129.96 2.72922 130.5 6.51922L127.04 7.26922C126.85 5.28922 125.59 4.38922 123.57 4.48922C122.16 4.55922 120.88 5.16922 120.94 6.40922C121 7.65922 122.49 7.96922 124.56 8.31922C127.6 8.84922 131.05 9.34922 131.23 13.1192C131.42 16.9892 128.12 18.3292 124.6 18.5092C120.86 18.6892 117.55 17.2192 117.24 13.3892H117.25Z" fill="#EEEEEE"/>
<path d="M142.52 10.2492C142.74 8.36922 144.46 7.11922 146.3 7.35922C148.14 7.59922 149.44 9.26922 149.19 11.1092C148.94 12.9792 147.29 14.2492 145.41 13.9892C143.57 13.7392 142.27 12.1192 142.52 10.2492Z" fill="#EEEEEE"/>
</svg>
